<!DOCTYPE svg PUBLIC "-//W3C//DTD SVG 1.1//EN" "http://www.w3.org/Graphics/SVG/1.1/DTD/svg11.dtd">
<!-- Uploaded to: SVG Repo, www.svgrepo.com, Transformed by: SVG Repo Mixer Tools -->
<svg fill="#fff" width="800px" height="800px" viewBox="-9.6 -9.6 51.20 51.20" version="1.1" xmlns="http://www.w3.org/2000/svg" stroke="#fff" stroke-width="0.00032">
<g id="SVGRepo_bgCarrier" stroke-width="0">
<rect x="-9.6" y="-9.6" width="51.20" height="51.20" rx="25.6" fill="#65b7e0" strokewidth="0"/>
</g>
<g id="SVGRepo_tracerCarrier" stroke-linecap="round" stroke-linejoin="round"/>
<g id="SVGRepo_iconCarrier"> <title>camera-rotate</title> <path d="M30 7.75h-7.23l-1.65-3.309c-0.21-0.413-0.632-0.691-1.119-0.691 0 0 0 0-0 0h-8c-0.487 0-0.908 0.278-1.115 0.684l-0.003 0.007-1.654 3.309h-7.228c-0.69 0-1.25 0.56-1.25 1.25v0 18c0 0.69 0.56 1.25 1.25 1.25h28c0.69-0.001 1.249-0.56 1.25-1.25v-18c-0-0.69-0.56-1.25-1.25-1.25h-0zM28.75 25.75h-25.5v-15.5h6.75c0.487-0 0.908-0.278 1.115-0.684l0.003-0.007 1.654-3.309h6.454l1.65 3.309c0.21 0.413 0.632 0.691 1.119 0.691 0 0 0 0 0 0h6.754zM20.076 16.74c-0.613 0.086-1.080 0.608-1.080 1.238 0 0.060 0.004 0.119 0.012 0.177l-0.001-0.007c0.017 0.118 0.027 0.255 0.027 0.394v0c-0.105 1.684-1.496 3.010-3.197 3.010-0.059 0-0.117-0.002-0.175-0.005l0.008 0c-0.231-0.007-0.452-0.035-0.666-0.081l0.024 0.004c0.161-0.2 0.26-0.456 0.267-0.735l0-0.001c-0-0.69-0.56-1.25-1.25-1.25h-2.331c-0.037 0-0.069 0.018-0.105 0.021-0.176 0.020-0.337 0.069-0.483 0.144l0.008-0.004c-0.034 0.018-0.072 0.020-0.104 0.042-0.038 0.025-0.059 0.064-0.093 0.092-0.126 0.102-0.23 0.227-0.307 0.368l-0.003 0.006c-0.073 0.134-0.123 0.292-0.138 0.46l-0 0.005c-0.008 0.030-0.017 0.070-0.023 0.11l-0.001 0.007v2.148c0 0 0 0 0 0.001 0 0.69 0.559 1.249 1.249 1.249 0.513 0 0.954-0.309 1.146-0.751l0.003-0.008c0.814 0.424 1.778 0.673 2.8 0.673 0.003 0 0.005 0 0.008 0h-0c0.050 0.002 0.108 0.002 0.167 0.002 3.081 0 5.591-2.444 5.697-5.499l0-0.010c-0-0.259-0.019-0.514-0.054-0.763l0.003 0.029c-0.083-0.613-0.603-1.081-1.233-1.081-0.062 0-0.123 0.005-0.182 0.013l0.007-0.001zM20.285 11.865c-0.513 0-0.953 0.31-1.146 0.752l-0.003 0.008c-0.814-0.425-1.778-0.674-2.8-0.674-0.002 0-0.005 0-0.007 0h0c-0.050-0.002-0.109-0.002-0.168-0.002-3.081 0-5.591 2.444-5.697 5.499l-0 0.010c0 0 0 0.001 0 0.002 0 0.263 0.020 0.522 0.058 0.775l-0.004-0.028c0.092 0.606 0.609 1.066 1.234 1.066h0c0.002 0 0.003 0 0.005 0 0.064 0 0.126-0.005 0.187-0.015l-0.007 0.001c0.607-0.092 1.066-0.611 1.066-1.236 0-0.065-0.005-0.129-0.014-0.191l0.001 0.007c-0.017-0.113-0.027-0.243-0.027-0.375 0-0.002 0-0.004 0-0.006v0c0.106-1.684 1.497-3.010 3.199-3.010 0.059 0 0.117 0.002 0.175 0.005l-0.008-0c0.232 0.007 0.452 0.035 0.666 0.081l-0.024-0.004c-0.161 0.2-0.261 0.457-0.267 0.736l-0 0.001c0 0.69 0.56 1.25 1.25 1.25v0h2.331c0.039 0 0.072-0.019 0.11-0.022 0.176-0.020 0.335-0.070 0.481-0.145l-0.008 0.004c0.033-0.017 0.069-0.019 0.101-0.040 0.037-0.024 0.057-0.062 0.091-0.089 0.066-0.053 0.123-0.11 0.175-0.172l0.002-0.002c0.049-0.058 0.093-0.123 0.131-0.192l0.003-0.006c0.033-0.060 0.063-0.13 0.087-0.203l0.002-0.009c0.024-0.073 0.042-0.159 0.050-0.247l0-0.005c0.009-0.032 0.017-0.073 0.024-0.115l0.001-0.006v-2.149c-0-0.69-0.56-1.25-1.25-1.25h-0z"/> </g>
</svg>